<svg xmlns="http://www.w3.org/2000/svg" width="20" height="20" viewBox="0 0 20 20" fill="none">
  <mask id="mask0_70_3549" style="mask-type:luminance" maskUnits="userSpaceOnUse" x="0" y="0" width="20" height="20">
    <path d="M19.5984 0.398438H0.398438V19.5984H19.5984V0.398438Z" fill="white"/>
  </mask>
  <g mask="url(#mask0_70_3549)">
    <path d="M6.42964 18.3977C13.6752 18.3977 17.6388 12.3941 17.6388 7.1969C17.6388 7.0289 17.6388 6.8585 17.6316 6.6905C18.4033 6.13188 19.0693 5.44028 19.5984 4.6481C18.8776 4.96592 18.1137 5.17539 17.3316 5.2697C18.1554 4.77726 18.7725 4.00246 19.068 3.0893C18.294 3.54785 17.4468 3.86975 16.5636 4.0409C15.9698 3.40853 15.1841 2.9896 14.3281 2.84901C13.4721 2.70842 12.5937 2.85401 11.8288 3.26322C11.0639 3.67244 10.4554 4.32245 10.0973 5.11257C9.73935 5.90269 9.65186 6.78882 9.84844 7.6337C8.28213 7.55516 6.74982 7.14826 5.35089 6.43939C3.95196 5.73052 2.71766 4.73551 1.72804 3.5189C1.22565 4.3866 1.07233 5.41298 1.29922 6.38962C1.5261 7.36626 2.11619 8.21994 2.94964 8.7773C2.32509 8.75608 1.71427 8.58838 1.16644 8.2877V8.3417C1.16752 9.25068 1.48241 10.1314 2.05789 10.835C2.63337 11.5386 3.43414 12.0219 4.32484 12.2033C3.98676 12.2964 3.63752 12.3428 3.28684 12.3413C3.03962 12.342 2.7929 12.3191 2.55004 12.2729C2.80178 13.0553 3.29197 13.7395 3.95194 14.2294C4.61191 14.7194 5.4086 14.9907 6.23044 15.0053C4.83431 16.1018 3.10972 16.6965 1.33444 16.6937C1.02163 16.695 0.709024 16.6769 0.398438 16.6397C2.20026 17.7884 4.2928 18.3983 6.42964 18.3977Z" fill="white"/>
  </g>
</svg>